<svg xmlns="http://www.w3.org/2000/svg" viewBox="0 0 128 128" width="128" height="128" role="img" aria-labelledby="title">
  <title>Nuvo Product Slider</title>
  <defs>
    <linearGradient id="g" x1="0" x2="1" y1="0" y2="1">
      <stop offset="0" stop-color="#20b2aa"/>
      <stop offset="1" stop-color="#15a085"/>
    </linearGradient>
  </defs>
  <rect rx="16" ry="16" width="128" height="128" fill="url(#g)"/>
  <g fill="#fff">
    <path d="M38 52h52a6 6 0 0 1 6 6l-6 34a8 8 0 0 1-8 6H46a8 8 0 0 1-8-6l-6-34a6 6 0 0 1 6-6z" opacity="0.95"/>
    <path d="M64 36c-10 0-18 8-18 18h6c0-6.6 5.4-12 12-12s12 5.4 12 12h6c0-10-8-18-18-18z"/>
    <path d="M54 70a4 4 0 1 0 0-8 4 4 0 0 0 0 8zm20 0a4 4 0 1 0 0-8 4 4 0 0 0 0 8z"/>
  </g>
</svg>

